<?xml version="1.0" encoding="UTF-8" standalone="no"?>
<!DOCTYPE svg PUBLIC "-//W3C//DTD SVG 1.1//EN"
 "http://www.w3.org/Graphics/SVG/1.1/DTD/svg11.dtd">
<!-- Generated by graphviz version 2.43.0 (0)
 -->
<!-- Title: /home/runner/work/amr&#45;wind/amr&#45;wind/amr&#45;wind/utilities/io_utils.H Pages: 1 -->
<svg width="4136pt" height="148pt"
 viewBox="0.00 0.00 4135.50 148.00" xmlns="http://www.w3.org/2000/svg" xmlns:xlink="http://www.w3.org/1999/xlink">
<g id="graph0" class="graph" transform="scale(1 1) rotate(0) translate(4 144)">
<title>/home/runner/work/amr&#45;wind/amr&#45;wind/amr&#45;wind/utilities/io_utils.H</title>
<!-- Node1 -->
<g id="Node000001" class="node">
<title>Node1</title>
<g id="a_Node000001"><a xlink:title=" ">
<polygon fill="#999999" stroke="#666666" points="2075,-140 1932,-140 1932,-99 2075,-99 2075,-140"/>
<text text-anchor="start" x="1940" y="-128" font-family="Helvetica,sans-Serif" font-size="10.00">/home/runner/work/amr</text>
<text text-anchor="start" x="1940" y="-117" font-family="Helvetica,sans-Serif" font-size="10.00">&#45;wind/amr&#45;wind/amr&#45;wind</text>
<text text-anchor="middle" x="2003.5" y="-106" font-family="Helvetica,sans-Serif" font-size="10.00">/utilities/io_utils.H</text>
</a>
</g>
</g>
<!-- Node2 -->
<g id="Node000002" class="node">
<title>Node2</title>
<g id="a_Node000002"><a xlink:href="_i_b_8cpp.html" target="_top" xlink:title=" ">
<polygon fill="white" stroke="#666666" points="153,-52 0,-52 0,-11 153,-11 153,-52"/>
<text text-anchor="start" x="8" y="-40" font-family="Helvetica,sans-Serif" font-size="10.00">/home/runner/work/amr</text>
<text text-anchor="start" x="8" y="-29" font-family="Helvetica,sans-Serif" font-size="10.00">&#45;wind/amr&#45;wind/amr&#45;wind</text>
<text text-anchor="middle" x="76.5" y="-18" font-family="Helvetica,sans-Serif" font-size="10.00">/immersed_boundary/IB.cpp</text>
</a>
</g>
</g>
<!-- Node1&#45;&gt;Node2 -->
<g id="edge1_Node000001_Node000002" class="edge">
<title>Node1&#45;&gt;Node2</title>
<g id="a_edge1_Node000001_Node000002"><a xlink:title=" ">
<path fill="none" stroke="#63b8ff" d="M1921.72,-117.55C1587.59,-113.44 335.58,-95.99 161.5,-63 148.71,-60.58 135.28,-56.52 122.97,-52.14"/>
<polygon fill="#63b8ff" stroke="#63b8ff" points="1921.76,-121.05 1931.81,-117.67 1921.85,-114.05 1921.76,-121.05"/>
</a>
</g>
</g>
<!-- Node3 -->
<g id="Node000003" class="node">
<title>Node3</title>
<g id="a_Node000003"><a xlink:href="bluff__body__ops_8cpp.html" target="_top" xlink:title=" ">
<polygon fill="white" stroke="#666666" points="316,-57.5 171,-57.5 171,-5.5 316,-5.5 316,-57.5"/>
<text text-anchor="start" x="179" y="-45.5" font-family="Helvetica,sans-Serif" font-size="10.00">/home/runner/work/amr</text>
<text text-anchor="start" x="179" y="-34.5" font-family="Helvetica,sans-Serif" font-size="10.00">&#45;wind/amr&#45;wind/amr&#45;wind</text>
<text text-anchor="start" x="179" y="-23.5" font-family="Helvetica,sans-Serif" font-size="10.00">/immersed_boundary/bluff</text>
<text text-anchor="middle" x="243.5" y="-12.5" font-family="Helvetica,sans-Serif" font-size="10.00">_body/bluff_body_ops.cpp</text>
</a>
</g>
</g>
<!-- Node1&#45;&gt;Node3 -->
<g id="edge2_Node000001_Node000003" class="edge">
<title>Node1&#45;&gt;Node3</title>
<g id="a_edge2_Node000001_Node000003"><a xlink:title=" ">
<path fill="none" stroke="#63b8ff" d="M1921.51,-117.36C1606.21,-112.76 481.64,-94.3 324.5,-63 317.57,-61.62 310.46,-59.72 303.46,-57.54"/>
<polygon fill="#63b8ff" stroke="#63b8ff" points="1921.88,-120.87 1931.93,-117.51 1921.99,-113.87 1921.88,-120.87"/>
</a>
</g>
</g>
<!-- Node4 -->
<g id="Node000004" class="node">
<title>Node4</title>
<g id="a_Node000004"><a xlink:href="relaxation__zones__ops_8cpp.html" target="_top" xlink:title=" ">
<polygon fill="white" stroke="#666666" points="477,-63 334,-63 334,0 477,0 477,-63"/>
<text text-anchor="start" x="342" y="-51" font-family="Helvetica,sans-Serif" font-size="10.00">/home/runner/work/amr</text>
<text text-anchor="start" x="342" y="-40" font-family="Helvetica,sans-Serif" font-size="10.00">&#45;wind/amr&#45;wind/amr&#45;wind</text>
<text text-anchor="start" x="342" y="-29" font-family="Helvetica,sans-Serif" font-size="10.00">/ocean_waves/relaxation</text>
<text text-anchor="start" x="342" y="-18" font-family="Helvetica,sans-Serif" font-size="10.00">_zones/relaxation_zones</text>
<text text-anchor="middle" x="405.5" y="-7" font-family="Helvetica,sans-Serif" font-size="10.00">_ops.cpp</text>
</a>
</g>
</g>
<!-- Node1&#45;&gt;Node4 -->
<g id="edge3_Node000001_Node000004" class="edge">
<title>Node1&#45;&gt;Node4</title>
<g id="a_edge3_Node000001_Node000004"><a xlink:title=" ">
<path fill="none" stroke="#63b8ff" d="M1921.43,-119.02C1647.1,-120.22 763.62,-119.49 485.5,-63 482.73,-62.44 479.93,-61.79 477.13,-61.08"/>
<polygon fill="#63b8ff" stroke="#63b8ff" points="1921.73,-122.52 1931.71,-118.98 1921.69,-115.52 1921.73,-122.52"/>
</a>
</g>
</g>
<!-- Node5 -->
<g id="Node000005" class="node">
<title>Node5</title>
<g id="a_Node000005"><a xlink:href="_terrain_drag_8cpp.html" target="_top" xlink:title=" ">
<polygon fill="white" stroke="#666666" points="638,-52 495,-52 495,-11 638,-11 638,-52"/>
<text text-anchor="start" x="503" y="-40" font-family="Helvetica,sans-Serif" font-size="10.00">/home/runner/work/amr</text>
<text text-anchor="start" x="503" y="-29" font-family="Helvetica,sans-Serif" font-size="10.00">&#45;wind/amr&#45;wind/amr&#45;wind</text>
<text text-anchor="middle" x="566.5" y="-18" font-family="Helvetica,sans-Serif" font-size="10.00">/physics/TerrainDrag.cpp</text>
</a>
</g>
</g>
<!-- Node1&#45;&gt;Node5 -->
<g id="edge4_Node000001_Node000005" class="edge">
<title>Node1&#45;&gt;Node5</title>
<g id="a_edge4_Node000001_Node000005"><a xlink:title=" ">
<path fill="none" stroke="#63b8ff" d="M1921.68,-118.56C1667.38,-118.2 893.17,-112.93 647.5,-63 635.28,-60.52 622.47,-56.44 610.73,-52.06"/>
<polygon fill="#63b8ff" stroke="#63b8ff" points="1921.95,-122.06 1931.95,-118.57 1921.95,-115.06 1921.95,-122.06"/>
</a>
</g>
</g>
<!-- Node6 -->
<g id="Node000006" class="node">
<title>Node6</title>
<g id="a_Node000006"><a xlink:href="_derived_qty_defs_8cpp.html" target="_top" xlink:title=" ">
<polygon fill="white" stroke="#666666" points="814.5,-52 656.5,-52 656.5,-11 814.5,-11 814.5,-52"/>
<text text-anchor="start" x="664.5" y="-40" font-family="Helvetica,sans-Serif" font-size="10.00">/home/runner/work/amr</text>
<text text-anchor="start" x="664.5" y="-29" font-family="Helvetica,sans-Serif" font-size="10.00">&#45;wind/amr&#45;wind/amr&#45;wind</text>
<text text-anchor="middle" x="735.5" y="-18" font-family="Helvetica,sans-Serif" font-size="10.00">/utilities/DerivedQtyDefs.cpp</text>
</a>
</g>
</g>
<!-- Node1&#45;&gt;Node6 -->
<g id="edge5_Node000001_Node000006" class="edge">
<title>Node1&#45;&gt;Node6</title>
<g id="a_edge5_Node000001_Node000006"><a xlink:title=" ">
<path fill="none" stroke="#63b8ff" d="M1921.76,-117.69C1690.46,-114.93 1034.46,-103.64 823.5,-63 810.48,-60.49 796.77,-56.46 784.15,-52.14"/>
<polygon fill="#63b8ff" stroke="#63b8ff" points="1921.75,-121.19 1931.79,-117.81 1921.83,-114.2 1921.75,-121.19"/>
</a>
</g>
</g>
<!-- Node7 -->
<g id="Node000007" class="node">
<title>Node7</title>
<g id="a_Node000007"><a xlink:href="_derived_quantity_8cpp.html" target="_top" xlink:title=" ">
<polygon fill="white" stroke="#666666" points="990.5,-52 832.5,-52 832.5,-11 990.5,-11 990.5,-52"/>
<text text-anchor="start" x="840.5" y="-40" font-family="Helvetica,sans-Serif" font-size="10.00">/home/runner/work/amr</text>
<text text-anchor="start" x="840.5" y="-29" font-family="Helvetica,sans-Serif" font-size="10.00">&#45;wind/amr&#45;wind/amr&#45;wind</text>
<text text-anchor="middle" x="911.5" y="-18" font-family="Helvetica,sans-Serif" font-size="10.00">/utilities/DerivedQuantity.cpp</text>
</a>
</g>
</g>
<!-- Node1&#45;&gt;Node7 -->
<g id="edge6_Node000001_Node000007" class="edge">
<title>Node1&#45;&gt;Node7</title>
<g id="a_edge6_Node000001_Node000007"><a xlink:title=" ">
<path fill="none" stroke="#63b8ff" d="M1921.6,-116.9C1714.76,-112.4 1175.31,-97.62 999.5,-63 986.49,-60.44 972.79,-56.39 960.17,-52.07"/>
<polygon fill="#63b8ff" stroke="#63b8ff" points="1921.72,-120.41 1931.79,-117.12 1921.87,-113.41 1921.72,-120.41"/>
</a>
</g>
</g>
<!-- Node8 -->
<g id="Node000008" class="node">
<title>Node8</title>
<g id="a_Node000008"><a xlink:href="_i_o_manager_8cpp.html" target="_top" xlink:title=" ">
<polygon fill="white" stroke="#666666" points="1152,-52 1009,-52 1009,-11 1152,-11 1152,-52"/>
<text text-anchor="start" x="1017" y="-40" font-family="Helvetica,sans-Serif" font-size="10.00">/home/runner/work/amr</text>
<text text-anchor="start" x="1017" y="-29" font-family="Helvetica,sans-Serif" font-size="10.00">&#45;wind/amr&#45;wind/amr&#45;wind</text>
<text text-anchor="middle" x="1080.5" y="-18" font-family="Helvetica,sans-Serif" font-size="10.00">/utilities/IOManager.cpp</text>
</a>
</g>
</g>
<!-- Node1&#45;&gt;Node8 -->
<g id="edge7_Node000001_Node000008" class="edge">
<title>Node1&#45;&gt;Node8</title>
<g id="a_edge7_Node000001_Node000008"><a xlink:title=" ">
<path fill="none" stroke="#63b8ff" d="M1921.63,-116.21C1739.18,-110.62 1304.04,-94.34 1160.5,-63 1148.59,-60.4 1136.1,-56.34 1124.63,-52.01"/>
<polygon fill="#63b8ff" stroke="#63b8ff" points="1921.6,-119.72 1931.7,-116.52 1921.81,-112.72 1921.6,-119.72"/>
</a>
</g>
</g>
<!-- Node9 -->
<g id="Node000009" class="node">
<title>Node9</title>
<g id="a_Node000009"><a xlink:href="ascent_8cpp.html" target="_top" xlink:title=" ">
<polygon fill="white" stroke="#666666" points="1317,-52 1170,-52 1170,-11 1317,-11 1317,-52"/>
<text text-anchor="start" x="1178" y="-40" font-family="Helvetica,sans-Serif" font-size="10.00">/home/runner/work/amr</text>
<text text-anchor="start" x="1178" y="-29" font-family="Helvetica,sans-Serif" font-size="10.00">&#45;wind/amr&#45;wind/amr&#45;wind</text>
<text text-anchor="middle" x="1243.5" y="-18" font-family="Helvetica,sans-Serif" font-size="10.00">/utilities/ascent/ascent.cpp</text>
</a>
</g>
</g>
<!-- Node1&#45;&gt;Node9 -->
<g id="edge8_Node000001_Node000009" class="edge">
<title>Node1&#45;&gt;Node9</title>
<g id="a_edge8_Node000001_Node000009"><a xlink:title=" ">
<path fill="none" stroke="#63b8ff" d="M1921.62,-118.99C1793.08,-118.15 1536.8,-110 1325.5,-63 1313.49,-60.33 1300.87,-56.29 1289.23,-52.03"/>
<polygon fill="#63b8ff" stroke="#63b8ff" points="1921.76,-122.49 1931.78,-119.04 1921.79,-115.49 1921.76,-122.49"/>
</a>
</g>
</g>
<!-- Node10 -->
<g id="Node000010" class="node">
<title>Node10</title>
<g id="a_Node000010"><a xlink:href="_time_averaging_8cpp.html" target="_top" xlink:title=" ">
<polygon fill="white" stroke="#666666" points="1540,-52 1335,-52 1335,-11 1540,-11 1540,-52"/>
<text text-anchor="start" x="1343" y="-40" font-family="Helvetica,sans-Serif" font-size="10.00">/home/runner/work/amr</text>
<text text-anchor="start" x="1343" y="-29" font-family="Helvetica,sans-Serif" font-size="10.00">&#45;wind/amr&#45;wind/amr&#45;wind</text>
<text text-anchor="middle" x="1437.5" y="-18" font-family="Helvetica,sans-Serif" font-size="10.00">/utilities/averaging/TimeAveraging.cpp</text>
</a>
</g>
</g>
<!-- Node1&#45;&gt;Node10 -->
<g id="edge9_Node000001_Node000010" class="edge">
<title>Node1&#45;&gt;Node10</title>
<g id="a_edge9_Node000001_Node000010"><a xlink:title=" ">
<path fill="none" stroke="#63b8ff" d="M1921.63,-112.16C1830.1,-104.23 1677.75,-88.5 1548.5,-63 1533.4,-60.02 1517.34,-56.08 1502.27,-52.01"/>
<polygon fill="#63b8ff" stroke="#63b8ff" points="1921.4,-115.65 1931.67,-113.02 1922,-108.68 1921.4,-115.65"/>
</a>
</g>
</g>
<!-- Node11 -->
<g id="Node000011" class="node">
<title>Node11</title>
<g id="a_Node000011"><a xlink:href="io__utils_8cpp.html" target="_top" xlink:title=" ">
<polygon fill="white" stroke="#666666" points="1701,-52 1558,-52 1558,-11 1701,-11 1701,-52"/>
<text text-anchor="start" x="1566" y="-40" font-family="Helvetica,sans-Serif" font-size="10.00">/home/runner/work/amr</text>
<text text-anchor="start" x="1566" y="-29" font-family="Helvetica,sans-Serif" font-size="10.00">&#45;wind/amr&#45;wind/amr&#45;wind</text>
<text text-anchor="middle" x="1629.5" y="-18" font-family="Helvetica,sans-Serif" font-size="10.00">/utilities/io_utils.cpp</text>
</a>
</g>
</g>
<!-- Node1&#45;&gt;Node11 -->
<g id="edge10_Node000001_Node000011" class="edge">
<title>Node1&#45;&gt;Node11</title>
<g id="a_edge10_Node000001_Node000011"><a xlink:title=" ">
<path fill="none" stroke="#63b8ff" d="M1921.9,-107.08C1862.39,-97.8 1780.14,-82.96 1709.5,-63 1698.77,-59.97 1687.46,-56.1 1676.84,-52.13"/>
<polygon fill="#63b8ff" stroke="#63b8ff" points="1921.57,-110.58 1931.99,-108.64 1922.64,-103.66 1921.57,-110.58"/>
</a>
</g>
</g>
<!-- Node12 -->
<g id="Node000012" class="node">
<title>Node12</title>
<g id="a_Node000012"><a xlink:href="_enstrophy_8cpp.html" target="_top" xlink:title=" ">
<polygon fill="white" stroke="#666666" points="1894,-52 1719,-52 1719,-11 1894,-11 1894,-52"/>
<text text-anchor="start" x="1727" y="-40" font-family="Helvetica,sans-Serif" font-size="10.00">/home/runner/work/amr</text>
<text text-anchor="start" x="1727" y="-29" font-family="Helvetica,sans-Serif" font-size="10.00">&#45;wind/amr&#45;wind/amr&#45;wind</text>
<text text-anchor="middle" x="1806.5" y="-18" font-family="Helvetica,sans-Serif" font-size="10.00">/utilities/sampling/Enstrophy.cpp</text>
</a>
</g>
</g>
<!-- Node1&#45;&gt;Node12 -->
<g id="edge11_Node000001_Node000012" class="edge">
<title>Node1&#45;&gt;Node12</title>
<g id="a_edge11_Node000001_Node000012"><a xlink:title=" ">
<path fill="none" stroke="#63b8ff" d="M1949.49,-94.92C1918.68,-81.47 1880.51,-64.81 1851.37,-52.09"/>
<polygon fill="#63b8ff" stroke="#63b8ff" points="1948.23,-98.19 1958.8,-98.99 1951.03,-91.78 1948.23,-98.19"/>
</a>
</g>
</g>
<!-- Node13 -->
<g id="Node000013" class="node">
<title>Node13</title>
<g id="a_Node000013"><a xlink:href="_field_norms_8cpp.html" target="_top" xlink:title=" ">
<polygon fill="white" stroke="#666666" points="2095,-52 1912,-52 1912,-11 2095,-11 2095,-52"/>
<text text-anchor="start" x="1920" y="-40" font-family="Helvetica,sans-Serif" font-size="10.00">/home/runner/work/amr</text>
<text text-anchor="start" x="1920" y="-29" font-family="Helvetica,sans-Serif" font-size="10.00">&#45;wind/amr&#45;wind/amr&#45;wind</text>
<text text-anchor="middle" x="2003.5" y="-18" font-family="Helvetica,sans-Serif" font-size="10.00">/utilities/sampling/FieldNorms.cpp</text>
</a>
</g>
</g>
<!-- Node1&#45;&gt;Node13 -->
<g id="edge12_Node000001_Node000013" class="edge">
<title>Node1&#45;&gt;Node13</title>
<g id="a_edge12_Node000001_Node000013"><a xlink:title=" ">
<path fill="none" stroke="#63b8ff" d="M2003.5,-88.86C2003.5,-76.76 2003.5,-63.08 2003.5,-52.24"/>
<polygon fill="#63b8ff" stroke="#63b8ff" points="2000,-88.99 2003.5,-98.99 2007,-88.99 2000,-88.99"/>
</a>
</g>
</g>
<!-- Node14 -->
<g id="Node000014" class="node">
<title>Node14</title>
<g id="a_Node000014"><a xlink:href="_free_surface_sampler_8cpp.html" target="_top" xlink:title=" ">
<polygon fill="white" stroke="#666666" points="2278,-57.5 2113,-57.5 2113,-5.5 2278,-5.5 2278,-57.5"/>
<text text-anchor="start" x="2121" y="-45.5" font-family="Helvetica,sans-Serif" font-size="10.00">/home/runner/work/amr</text>
<text text-anchor="start" x="2121" y="-34.5" font-family="Helvetica,sans-Serif" font-size="10.00">&#45;wind/amr&#45;wind/amr&#45;wind</text>
<text text-anchor="start" x="2121" y="-23.5" font-family="Helvetica,sans-Serif" font-size="10.00">/utilities/sampling/FreeSurface</text>
<text text-anchor="middle" x="2195.5" y="-12.5" font-family="Helvetica,sans-Serif" font-size="10.00">Sampler.cpp</text>
</a>
</g>
</g>
<!-- Node1&#45;&gt;Node14 -->
<g id="edge13_Node000001_Node000014" class="edge">
<title>Node1&#45;&gt;Node14</title>
<g id="a_edge13_Node000001_Node000014"><a xlink:title=" ">
<path fill="none" stroke="#63b8ff" d="M2056.31,-94.85C2082.09,-83.3 2113.12,-69.4 2139.33,-57.66"/>
<polygon fill="#63b8ff" stroke="#63b8ff" points="2054.76,-91.7 2047.07,-98.99 2057.62,-98.09 2054.76,-91.7"/>
</a>
</g>
</g>
<!-- Node15 -->
<g id="Node000015" class="node">
<title>Node15</title>
<g id="a_Node000015"><a xlink:href="_kinetic_energy_8cpp.html" target="_top" xlink:title=" ">
<polygon fill="white" stroke="#666666" points="2490.5,-52 2296.5,-52 2296.5,-11 2490.5,-11 2490.5,-52"/>
<text text-anchor="start" x="2304.5" y="-40" font-family="Helvetica,sans-Serif" font-size="10.00">/home/runner/work/amr</text>
<text text-anchor="start" x="2304.5" y="-29" font-family="Helvetica,sans-Serif" font-size="10.00">&#45;wind/amr&#45;wind/amr&#45;wind</text>
<text text-anchor="middle" x="2393.5" y="-18" font-family="Helvetica,sans-Serif" font-size="10.00">/utilities/sampling/KineticEnergy.cpp</text>
</a>
</g>
</g>
<!-- Node1&#45;&gt;Node15 -->
<g id="edge14_Node000001_Node000015" class="edge">
<title>Node1&#45;&gt;Node15</title>
<g id="a_edge14_Node000001_Node000015"><a xlink:title=" ">
<path fill="none" stroke="#63b8ff" d="M2085.1,-104.5C2142.09,-94.25 2219.77,-79.33 2287.5,-63 2301,-59.75 2315.35,-55.89 2328.99,-52.03"/>
<polygon fill="#63b8ff" stroke="#63b8ff" points="2084.3,-101.09 2075.07,-106.3 2085.53,-107.98 2084.3,-101.09"/>
</a>
</g>
</g>
<!-- Node16 -->
<g id="Node000016" class="node">
<title>Node16</title>
<g id="a_Node000016"><a xlink:href="_sampling_8cpp.html" target="_top" xlink:title=" ">
<polygon fill="white" stroke="#666666" points="2682,-52 2509,-52 2509,-11 2682,-11 2682,-52"/>
<text text-anchor="start" x="2517" y="-40" font-family="Helvetica,sans-Serif" font-size="10.00">/home/runner/work/amr</text>
<text text-anchor="start" x="2517" y="-29" font-family="Helvetica,sans-Serif" font-size="10.00">&#45;wind/amr&#45;wind/amr&#45;wind</text>
<text text-anchor="middle" x="2595.5" y="-18" font-family="Helvetica,sans-Serif" font-size="10.00">/utilities/sampling/Sampling.cpp</text>
</a>
</g>
</g>
<!-- Node1&#45;&gt;Node16 -->
<g id="edge15_Node000001_Node000016" class="edge">
<title>Node1&#45;&gt;Node16</title>
<g id="a_edge15_Node000001_Node000016"><a xlink:title=" ">
<path fill="none" stroke="#63b8ff" d="M2085.49,-114.26C2184.49,-108.02 2355.64,-93.59 2499.5,-63 2512.93,-60.14 2527.15,-56.17 2540.41,-52.04"/>
<polygon fill="#63b8ff" stroke="#63b8ff" points="2085.02,-110.79 2075.25,-114.9 2085.45,-117.77 2085.02,-110.79"/>
</a>
</g>
</g>
<!-- Node17 -->
<g id="Node000017" class="node">
<title>Node17</title>
<g id="a_Node000017"><a xlink:href="_wave_energy_8cpp.html" target="_top" xlink:title=" ">
<polygon fill="white" stroke="#666666" points="2887,-52 2700,-52 2700,-11 2887,-11 2887,-52"/>
<text text-anchor="start" x="2708" y="-40" font-family="Helvetica,sans-Serif" font-size="10.00">/home/runner/work/amr</text>
<text text-anchor="start" x="2708" y="-29" font-family="Helvetica,sans-Serif" font-size="10.00">&#45;wind/amr&#45;wind/amr&#45;wind</text>
<text text-anchor="middle" x="2793.5" y="-18" font-family="Helvetica,sans-Serif" font-size="10.00">/utilities/sampling/WaveEnergy.cpp</text>
</a>
</g>
</g>
<!-- Node1&#45;&gt;Node17 -->
<g id="edge16_Node000001_Node000017" class="edge">
<title>Node1&#45;&gt;Node17</title>
<g id="a_edge16_Node000001_Node000017"><a xlink:title=" ">
<path fill="none" stroke="#63b8ff" d="M2085.46,-117.43C2215.17,-114.51 2475.2,-103.6 2691.5,-63 2706.03,-60.27 2721.44,-56.27 2735.76,-52.06"/>
<polygon fill="#63b8ff" stroke="#63b8ff" points="2085.14,-113.94 2075.22,-117.65 2085.29,-120.94 2085.14,-113.94"/>
</a>
</g>
</g>
<!-- Node18 -->
<g id="Node000018" class="node">
<title>Node18</title>
<g id="a_Node000018"><a xlink:href="_a_b_l_stats_8cpp.html" target="_top" xlink:title=" ">
<polygon fill="white" stroke="#666666" points="3054,-52 2905,-52 2905,-11 3054,-11 3054,-52"/>
<text text-anchor="start" x="2913" y="-40" font-family="Helvetica,sans-Serif" font-size="10.00">/home/runner/work/amr</text>
<text text-anchor="start" x="2913" y="-29" font-family="Helvetica,sans-Serif" font-size="10.00">&#45;wind/amr&#45;wind/amr&#45;wind</text>
<text text-anchor="middle" x="2979.5" y="-18" font-family="Helvetica,sans-Serif" font-size="10.00">/wind_energy/ABLStats.cpp</text>
</a>
</g>
</g>
<!-- Node1&#45;&gt;Node18 -->
<g id="edge17_Node000001_Node000018" class="edge">
<title>Node1&#45;&gt;Node18</title>
<g id="a_edge17_Node000001_Node000018"><a xlink:title=" ">
<path fill="none" stroke="#63b8ff" d="M2085.35,-116.44C2275.58,-111.17 2742.94,-95.27 2896.5,-63 2908.82,-60.41 2921.76,-56.35 2933.67,-52.03"/>
<polygon fill="#63b8ff" stroke="#63b8ff" points="2085.04,-112.95 2075.14,-116.72 2085.23,-119.95 2085.04,-112.95"/>
</a>
</g>
</g>
<!-- Node19 -->
<g id="Node000019" class="node">
<title>Node19</title>
<g id="a_Node000019"><a xlink:href="_actuator_8cpp.html" target="_top" xlink:title=" ">
<polygon fill="white" stroke="#666666" points="3261,-52 3072,-52 3072,-11 3261,-11 3261,-52"/>
<text text-anchor="start" x="3080" y="-40" font-family="Helvetica,sans-Serif" font-size="10.00">/home/runner/work/amr</text>
<text text-anchor="start" x="3080" y="-29" font-family="Helvetica,sans-Serif" font-size="10.00">&#45;wind/amr&#45;wind/amr&#45;wind</text>
<text text-anchor="middle" x="3166.5" y="-18" font-family="Helvetica,sans-Serif" font-size="10.00">/wind_energy/actuator/Actuator.cpp</text>
</a>
</g>
</g>
<!-- Node1&#45;&gt;Node19 -->
<g id="edge18_Node000001_Node000019" class="edge">
<title>Node1&#45;&gt;Node19</title>
<g id="a_edge18_Node000001_Node000019"><a xlink:title=" ">
<path fill="none" stroke="#63b8ff" d="M2085.29,-116.71C2299.94,-111.61 2875.76,-95.25 3063.5,-63 3078.57,-60.41 3094.56,-56.35 3109.32,-52.03"/>
<polygon fill="#63b8ff" stroke="#63b8ff" points="2084.95,-113.21 2075.04,-116.95 2085.11,-120.21 2084.95,-113.21"/>
</a>
</g>
</g>
<!-- Node20 -->
<g id="Node000020" class="node">
<title>Node20</title>
<g id="a_Node000020"><a xlink:href="_joukowsky__ops_8cpp.html" target="_top" xlink:title=" ">
<polygon fill="white" stroke="#666666" points="3428,-57.5 3279,-57.5 3279,-5.5 3428,-5.5 3428,-57.5"/>
<text text-anchor="start" x="3287" y="-45.5" font-family="Helvetica,sans-Serif" font-size="10.00">/home/runner/work/amr</text>
<text text-anchor="start" x="3287" y="-34.5" font-family="Helvetica,sans-Serif" font-size="10.00">&#45;wind/amr&#45;wind/amr&#45;wind</text>
<text text-anchor="start" x="3287" y="-23.5" font-family="Helvetica,sans-Serif" font-size="10.00">/wind_energy/actuator/disk</text>
<text text-anchor="middle" x="3353.5" y="-12.5" font-family="Helvetica,sans-Serif" font-size="10.00">/Joukowsky_ops.cpp</text>
</a>
</g>
</g>
<!-- Node1&#45;&gt;Node20 -->
<g id="edge19_Node000001_Node000020" class="edge">
<title>Node1&#45;&gt;Node20</title>
<g id="a_edge19_Node000001_Node000020"><a xlink:title=" ">
<path fill="none" stroke="#63b8ff" d="M2085.32,-118.2C2328.25,-116.78 3042.52,-108.73 3270.5,-63 3277.42,-61.61 3284.54,-59.74 3291.55,-57.6"/>
<polygon fill="#63b8ff" stroke="#63b8ff" points="2085.13,-114.7 2075.15,-118.25 2085.17,-121.7 2085.13,-114.7"/>
</a>
</g>
</g>
<!-- Node21 -->
<g id="Node000021" class="node">
<title>Node21</title>
<g id="a_Node000021"><a xlink:href="disk__ops_8cpp.html" target="_top" xlink:title=" ">
<polygon fill="white" stroke="#666666" points="3595,-57.5 3446,-57.5 3446,-5.5 3595,-5.5 3595,-57.5"/>
<text text-anchor="start" x="3454" y="-45.5" font-family="Helvetica,sans-Serif" font-size="10.00">/home/runner/work/amr</text>
<text text-anchor="start" x="3454" y="-34.5" font-family="Helvetica,sans-Serif" font-size="10.00">&#45;wind/amr&#45;wind/amr&#45;wind</text>
<text text-anchor="start" x="3454" y="-23.5" font-family="Helvetica,sans-Serif" font-size="10.00">/wind_energy/actuator/disk</text>
<text text-anchor="middle" x="3520.5" y="-12.5" font-family="Helvetica,sans-Serif" font-size="10.00">/disk_ops.cpp</text>
</a>
</g>
</g>
<!-- Node1&#45;&gt;Node21 -->
<g id="edge20_Node000001_Node000021" class="edge">
<title>Node1&#45;&gt;Node21</title>
<g id="a_edge20_Node000001_Node000021"><a xlink:title=" ">
<path fill="none" stroke="#63b8ff" d="M2085.45,-118.69C2349.5,-118.77 3175.97,-114.77 3437.5,-63 3444.43,-61.63 3451.55,-59.77 3458.56,-57.63"/>
<polygon fill="#63b8ff" stroke="#63b8ff" points="2085.18,-115.19 2075.18,-118.68 2085.17,-122.19 2085.18,-115.19"/>
</a>
</g>
</g>
<!-- Node22 -->
<g id="Node000022" class="node">
<title>Node22</title>
<g id="a_Node000022"><a xlink:href="_fast_iface_8cpp.html" target="_top" xlink:title=" ">
<polygon fill="white" stroke="#666666" points="3776,-57.5 3613,-57.5 3613,-5.5 3776,-5.5 3776,-57.5"/>
<text text-anchor="start" x="3621" y="-45.5" font-family="Helvetica,sans-Serif" font-size="10.00">/home/runner/work/amr</text>
<text text-anchor="start" x="3621" y="-34.5" font-family="Helvetica,sans-Serif" font-size="10.00">&#45;wind/amr&#45;wind/amr&#45;wind</text>
<text text-anchor="start" x="3621" y="-23.5" font-family="Helvetica,sans-Serif" font-size="10.00">/wind_energy/actuator/turbine</text>
<text text-anchor="middle" x="3694.5" y="-12.5" font-family="Helvetica,sans-Serif" font-size="10.00">/fast/FastIface.cpp</text>
</a>
</g>
</g>
<!-- Node1&#45;&gt;Node22 -->
<g id="edge21_Node000001_Node000022" class="edge">
<title>Node1&#45;&gt;Node22</title>
<g id="a_edge21_Node000001_Node000022"><a xlink:title=" ">
<path fill="none" stroke="#63b8ff" d="M2085.61,-118.81C2369.55,-119.39 3308.58,-117.06 3604.5,-63 3612.13,-61.61 3619.99,-59.7 3627.74,-57.51"/>
<polygon fill="#63b8ff" stroke="#63b8ff" points="2085.4,-115.31 2075.39,-118.79 2085.38,-122.31 2085.4,-115.31"/>
</a>
</g>
</g>
<!-- Node23 -->
<g id="Node000023" class="node">
<title>Node23</title>
<g id="a_Node000023"><a xlink:href="turbine__utils_8cpp.html" target="_top" xlink:title=" ">
<polygon fill="white" stroke="#666666" points="3957,-57.5 3794,-57.5 3794,-5.5 3957,-5.5 3957,-57.5"/>
<text text-anchor="start" x="3802" y="-45.5" font-family="Helvetica,sans-Serif" font-size="10.00">/home/runner/work/amr</text>
<text text-anchor="start" x="3802" y="-34.5" font-family="Helvetica,sans-Serif" font-size="10.00">&#45;wind/amr&#45;wind/amr&#45;wind</text>
<text text-anchor="start" x="3802" y="-23.5" font-family="Helvetica,sans-Serif" font-size="10.00">/wind_energy/actuator/turbine</text>
<text text-anchor="middle" x="3875.5" y="-12.5" font-family="Helvetica,sans-Serif" font-size="10.00">/turbine_utils.cpp</text>
</a>
</g>
</g>
<!-- Node1&#45;&gt;Node23 -->
<g id="edge22_Node000001_Node000023" class="edge">
<title>Node1&#45;&gt;Node23</title>
<g id="a_edge22_Node000001_Node000023"><a xlink:title=" ">
<path fill="none" stroke="#63b8ff" d="M2085.54,-117.37C2413.06,-112.66 3617.33,-93.42 3785.5,-63 3793.13,-61.62 3800.99,-59.72 3808.74,-57.53"/>
<polygon fill="#63b8ff" stroke="#63b8ff" points="2085.13,-113.87 2075.18,-117.52 2085.23,-120.87 2085.13,-113.87"/>
</a>
</g>
</g>
<!-- Node24 -->
<g id="Node000024" class="node">
<title>Node24</title>
<g id="a_Node000024"><a xlink:href="wing__ops_8cpp.html" target="_top" xlink:title=" ">
<polygon fill="white" stroke="#666666" points="4127.5,-57.5 3975.5,-57.5 3975.5,-5.5 4127.5,-5.5 4127.5,-57.5"/>
<text text-anchor="start" x="3983.5" y="-45.5" font-family="Helvetica,sans-Serif" font-size="10.00">/home/runner/work/amr</text>
<text text-anchor="start" x="3983.5" y="-34.5" font-family="Helvetica,sans-Serif" font-size="10.00">&#45;wind/amr&#45;wind/amr&#45;wind</text>
<text text-anchor="start" x="3983.5" y="-23.5" font-family="Helvetica,sans-Serif" font-size="10.00">/wind_energy/actuator/wing</text>
<text text-anchor="middle" x="4051.5" y="-12.5" font-family="Helvetica,sans-Serif" font-size="10.00">/wing_ops.cpp</text>
</a>
</g>
</g>
<!-- Node1&#45;&gt;Node24 -->
<g id="edge23_Node000001_Node000024" class="edge">
<title>Node1&#45;&gt;Node24</title>
<g id="a_edge23_Node000001_Node000024"><a xlink:title=" ">
<path fill="none" stroke="#63b8ff" d="M2085.39,-117.71C2433.36,-114.14 3780.04,-98.16 3966.5,-63 3973.74,-61.63 3981.19,-59.74 3988.52,-57.56"/>
<polygon fill="#63b8ff" stroke="#63b8ff" points="2085.11,-114.21 2075.14,-117.81 2085.18,-121.21 2085.11,-114.21"/>
</a>
</g>
</g>
</g>
</svg>
